<svg xmlns="http://www.w3.org/2000/svg" width="16" height="14" viewBox="0 0 16 14"><g><g><path d="M15.543 5.162c0 3.443-6.503 7.964-7.244 8.468a.929.929 0 0 1-1.05 0C6.507 13.126.005 8.605.005 5.162.005 2.768 1.876.205 4.663.205c1.51 0 2.507.679 3.11 1.322.605-.643 1.6-1.322 3.111-1.322 2.787 0 4.659 2.563 4.659 4.957zM10.884 2.06c-1.646 0-2.219 1.406-2.242 1.466a.94.94 0 0 1-.867.589.926.926 0 0 1-.872-.596c-.022-.056-.6-1.459-2.24-1.459-1.825 0-2.796 1.801-2.796 3.102 0 1.542 2.95 4.45 5.906 6.569 2.958-2.12 5.908-5.029 5.908-6.57 0-1.3-.972-3.1-2.797-3.1z"/></g></g></svg>