<svg xmlns="http://www.w3.org/2000/svg" width="15" height="16" viewBox="0 0 15 16"><g><g><path d="M15.002 15.011l-.052.327a.988.988 0 1 1-1.834.072h-.04l-.024-.213a.937.937 0 0 1-.014-.127c-.287-2.838-2.658-4.968-5.523-4.97h-.028a5.575 5.575 0 0 0-2.999.87.99.99 0 0 1-.174.145 5.49 5.49 0 0 0-2.325 3.928.945.945 0 0 1-.057.308l-.007.059H1.91a.983.983 0 0 1-.903.588l-.014-.001-.01.001c-.026 0-.052-.004-.077-.006-.009 0-.017 0-.025-.002a.982.982 0 0 1-.829-.652L0 15.01a.95.95 0 0 1 .02-.166c.092-.886.355-1.74.753-2.526l.029-.058a7.468 7.468 0 0 1 .49-.818l.097-.14c.055-.076.111-.15.169-.222.036-.047.07-.094.108-.14l.106-.122a7.519 7.519 0 0 1 2.447-1.903 5.064 5.064 0 0 1-1.601-2.393c-.006-.017-.01-.035-.015-.052a4.829 4.829 0 0 1-.1-.39l-.014-.072a4.91 4.91 0 0 1-.098-.96c0-2.784 2.287-5.05 5.098-5.05h.024c2.811 0 5.098 2.266 5.098 5.05 0 .324-.035.645-.098.96l-.014.072a4.622 4.622 0 0 1-.1.39l-.014.052a5.064 5.064 0 0 1-1.602 2.393c2.305 1.114 3.936 3.4 4.2 5.929a.95.95 0 0 1 .019.166zm-7.5-6.849c1.722-.006 3.122-1.4 3.122-3.114a3.1 3.1 0 0 0-.309-1.35c-.01-.022-.02-.045-.032-.067a2.889 2.889 0 0 0-.087-.154 2.562 2.562 0 0 0-.07-.117l-.073-.105a3.102 3.102 0 0 0-.552-.596l-.02-.016a3.126 3.126 0 0 0-.229-.17l-.007-.006a3.29 3.29 0 0 0-.255-.154h-.001a3.128 3.128 0 0 0-2.976 0 3.309 3.309 0 0 0-.256.154l-.007.005c-.08.054-.156.11-.23.17l-.019.017a2.958 2.958 0 0 0-.44.447c-.039.049-.076.099-.112.15-.025.035-.05.069-.072.104a2.558 2.558 0 0 0-.071.117c-.03.05-.06.101-.087.154l-.032.067a3.1 3.1 0 0 0-.31 1.35c0 1.714 1.4 3.108 3.124 3.114z"/></g></g></svg>