<svg xmlns="http://www.w3.org/2000/svg" width="15" height="14" viewBox="0 0 15 14"><g><g><path d="M14.998 12.999a.943.943 0 0 1-.305.706 1.082 1.082 0 0 1-.758.297c-.26 0-.516-.094-.722-.264l-.013-.012-3.144-2.852a6.629 6.629 0 0 1-3.703 1.128C2.849 12.002-.001 9.31-.001 6-.001 2.69 2.849 0 6.353 0c3.513 0 6.37 2.692 6.37 6.002a5.774 5.774 0 0 1-1.17 3.47L14.67 12.3a.95.95 0 0 1 .33.7zm-4.4-6.993c0-2.216-1.904-4.016-4.245-4.016-2.34 0-4.245 1.8-4.245 4.01 0 2.215 1.913 4.027 4.264 4.042a4.373 4.373 0 0 0 2.812-1.02.767.767 0 0 1 .125-.161.758.758 0 0 1 .217-.177c.706-.746 1.086-1.695 1.072-2.678z"/></g></g></svg>